#!OML:ASF E:\Style4\Style4.ASF
:FULLY-SPECIFIED
:DEGREES
2658
root 0.611636 17.4207 -1.40159 -1.07755 13.5602 10.8821
lowerback 12.0462 4.34775 2.64901
upperback 10.667 6.12514 -1.72759
thorax 5.0282 3.3839 -3.71538
lowerneck -0.179487 -1.73146 -6.32533
upperneck 22.9793 3.79469 -24.3945
head 7.59859 -0.244432 -6.97158
rclavicle -7.4743e-014 2.70347e-014
rhumerus -35.6649 6.57802 -88.8797
rradius 52.4778
rwrist 9.23938
rhand 1.6338 -2.94456
rfingers 7.12502
rthumb 27.1543 -31.0109
lclavicle -7.4743e-014 2.70347e-014
lhumerus -36.0249 -7.03455 88.9213
lradius 56.8418
lwrist 21.262
lhand 1.75897 26.9712
lfingers 7.12502
lthumb 27.2741 55.0189
rfemur -15.4149 0.76574 5.70398
rtibia 44.4523
rfoot -24.2894 -20.0363
rtoes -5.85795
lfemur -12.1808 -6.32416 -33.4839
ltibia 30.5959
lfoot -14.9547 3.65417
ltoes -13.418
2659
root 0.66399 17.414 -1.3968 -1.12168 12.8023 11.417
lowerback 11.9089 4.22086 2.42519
upperback 10.5958 5.9334 -1.80529
thorax 4.9899 3.27156 -3.65433
lowerneck -0.22723 -1.56509 -6.21319
upperneck 22.8642 3.97439 -24.4203
head 7.58677 -0.154889 -6.98542
rclavicle -1.22451e-013 6.52014e-014
rhumerus -35.6702 6.50741 -88.9874
rradius 52.5676
rwrist 9.02823
rhand 0.429125 -2.8281
rfingers 7.12502
rthumb 26.0013 -31.0692
lclavicle -1.22451e-013 6.52014e-014
lhumerus -35.987 -7.01717 88.8707
lradius 56.2385
lwrist 21.1521
lhand 1.86764 26.8691
lfingers 7.12502
lthumb 27.378 54.9003
rfemur -15.5257 1.22807 4.91049
rtibia 44.5868
rfoot -24.3114 -19.7073
rtoes -5.97365
lfemur -11.8733 -5.83832 -34.234
ltibia 30.3582
lfoot -15.039 3.9966
ltoes -13.7613
2660
root 0.712121 17.4106 -1.39196 -1.2515 11.9539 11.6621
lowerback 11.7479 4.12644 2.40294
upperback 10.5588 5.79659 -1.75981
thorax 5.01579 3.19556 -3.57485
lowerneck -0.298446 -1.42017 -6.18602
upperneck 22.752 4.13411 -24.4324
head 7.57992 -0.0817154 -6.9808
rclavicle 3.93594e-014 -1.27222e-014
rhumerus -35.6041 6.28811 -88.9493
rradius 52.679
rwrist 8.98159
rhand 0.109511 -2.62315
rfingers 7.12502
rthumb 25.6953 -30.9088
lclavicle 3.93594e-014 -1.27222e-014
lhumerus -35.882 -7.04918 88.8839
lradius 55.5862
lwrist 20.9148
lhand 1.98076 26.6221
lfingers 7.12502
lthumb 27.4862 54.6362
rfemur -15.6505 1.88026 4.47772
rtibia 44.6813
rfoot -24.3131 -19.5063
rtoes -5.94973
lfemur -11.5913 -5.28355 -34.6469
ltibia 30.116
lfoot -15.1213 4.24761
ltoes -13.3314
2661
root 0.758151 17.4102 -1.38661 -1.42684 11.0195 11.7038
lowerback 11.6464 4.02351 2.496
upperback 10.4824 5.65344 -1.63168
thorax 4.96928 3.11781 -3.47941
lowerneck -0.438775 -1.25399 -6.40694
upperneck 22.7617 4.34543 -24.2501
head 7.63361 -0.00808072 -6.86598
rclavicle 7.59357e-014 -6.52014e-014
rhumerus -35.585 6.15697 -88.8712
rradius 52.865
rwrist 9.14893
rhand 0.691308 -2.91481
rfingers 7.12502
rthumb 26.2524 -31.1187
lclavicle 7.59357e-014 -6.52014e-014
lhumerus -35.9004 -7.05276 88.9409
lradius 55.0879
lwrist 20.6722
lhand 2.21639 26.4542
lfingers 7.12502
lthumb 27.7115 54.4322
rfemur -15.7951 2.68621 4.28852
rtibia 44.7491
rfoot -24.397 -19.2003
rtoes -5.32024
lfemur -11.3337 -4.67032 -34.8295
ltibia 29.8889
lfoot -15.2479 4.59596
ltoes -13.4965
2662
root 0.80597 17.4096 -1.37946 -1.60999 10.1437 11.856
lowerback 11.6363 3.89754 2.515
upperback 10.3763 5.47679 -1.54842
thorax 4.83556 3.01924 -3.3972
lowerneck -0.568203 -1.08643 -6.67398
upperneck 22.8486 4.55804 -23.9632
head 7.70853 0.0624884 -6.70845
rclavicle 3.49861e-014 -2.22639e-014
rhumerus -35.639 6.18087 -88.8673
rradius 53.0149
rwrist 9.33741
rhand 0.386599 -3.11487
rfingers 7.12502
rthumb 25.9606 -31.3619
lclavicle 3.49861e-014 -2.22639e-014
lhumerus -36.0154 -7.00167 88.9876
lradius 54.649
lwrist 20.3604
lhand 2.40675 26.25
lfingers 7.12502
lthumb 27.8935 54.1987
rfemur -15.8852 3.42005 3.97469
rtibia 44.7905
rfoot -24.4279 -18.948
rtoes -4.8728
lfemur -11.0654 -4.14146 -35.1395
ltibia 29.723
lfoot -15.389 4.97689
ltoes -13.3171
2663
root 0.852885 17.4037 -1.37044 -1.78405 9.37745 12.0768
lowerback 11.5358 3.74443 2.54404
upperback 10.3401 5.26789 -1.52167
thorax 4.83251 2.91133 -3.3671
lowerneck -0.478791 -0.955363 -6.55271
upperneck 22.6121 4.64444 -24.0367
head 7.61841 0.126597 -6.73748
rclavicle 9.30312e-014 -2.22639e-014
rhumerus -35.6105 6.0942 -88.8871
rradius 53.2068
rwrist 9.64681
rhand -0.0930445 -3.07701
rfingers 7.12502
rthumb 25.5012 -31.3905
lclavicle 9.30312e-014 -2.22639e-014
lhumerus -35.9876 -7.07177 89.0129
lradius 54.1635
lwrist 20.1384
lhand 2.52432 26.1005
lfingers 7.12502
lthumb 28.0059 54.0309
rfemur -15.9417 3.9719 3.58595
rtibia 44.834
rfoot -24.4048 -18.7796
rtoes -5.37239
lfemur -10.8073 -3.66746 -35.5191
ltibia 29.5962
lfoot -15.5565 5.25143
ltoes -12.8043
2664
root 0.897194 17.3978 -1.36246 -1.96652 8.61415 12.2089
lowerback 11.3856 3.54909 2.5962
upperback 10.3486 5.00314 -1.45969
thorax 4.89914 2.77694 -3.30449
lowerneck -0.313836 -0.780753 -6.43646
upperneck 22.1797 4.74284 -24.1732
head 7.45009 0.214961 -6.77639
rclavicle -7.15625e-015 -1.59028e-015
rhumerus -35.5151 6.16823 -88.9412
rradius 53.4344
rwrist 9.81188
rhand -0.222575 -3.09821
rfingers 7.12502
rthumb 25.3772 -31.4294
lclavicle -7.15625e-015 -1.59028e-015
lhumerus -35.8517 -7.07621 89.0362
lradius 53.6848
lwrist 20.0965
lhand 2.57837 26.0616
lfingers 7.12502
lthumb 28.0576 53.9835
rfemur -16.0119 4.53064 3.30683
rtibia 44.8805
rfoot -24.4152 -18.5736
rtoes -5.62425
lfemur -10.5898 -3.19827 -35.7992
ltibia 29.5015
lfoot -15.6809 5.58626
ltoes -12.9954
2665
root 0.941078 17.3936 -1.35342 -2.19344 7.78372 12.2509
lowerback 11.3647 3.38977 2.75849
upperback 10.2985 4.7948 -1.39194
thorax 4.84691 2.67489 -3.3125
lowerneck -0.167635 -0.632918 -6.43958
upperneck 21.9261 4.82223 -24.1142
head 7.34111 0.279716 -6.73456
rclavicle -7.15625e-015 4.77083e-015
rhumerus -35.5417 6.22176 -89.0189
rradius 53.7256
rwrist 9.94532
rhand -0.260984 -3.13796
rfingers 7.12502
rthumb 25.3404 -31.4744
lclavicle -7.15625e-015 4.77083e-015
lhumerus -35.8316 -7.20291 89.0799
lradius 53.2074
lwrist 20.0869
lhand 2.39548 25.948
lfingers 7.12502
lthumb 27.8828 53.8984
rfemur -16.0829 5.11115 3.14902
rtibia 44.918
rfoot -24.2202 -18.5379
rtoes -6.51134
lfemur -10.36 -2.71775 -35.9779
ltibia 29.4576
lfoot -15.8692 5.94456
ltoes -12.9803
2666
root 0.980216 17.3895 -1.3468 -2.40086 6.97098 12.2823
lowerback 11.4248 3.21638 2.89664
upperback 10.194 4.56742 -1.32899
thorax 4.68751 2.55918 -3.31866
lowerneck -0.068809 -0.505297 -6.35746
upperneck 21.7162 4.91272 -24.1871
head 7.26111 0.340872 -6.75931
rclavicle 2.06736e-014 -1.59028e-015
rhumerus -35.6133 6.21777 -89.1067
rradius 54.0465
rwrist 10.2191
rhand -0.254858 -3.05961
rfingers 7.12502
rthumb 25.3462 -31.3952
lclavicle 2.06736e-014 -1.59028e-015
lhumerus -35.9231 -7.23254 89.0838
lradius 52.836
lwrist 20.0008
lhand 2.17782 26.0162
lfingers 7.12502
lthumb 27.6746 54.0002
rfemur -16.1907 5.66627 3.02609
rtibia 44.9496
rfoot -23.9131 -18.6015
rtoes -7.71965
lfemur -10.1949 -2.2317 -36.1159
ltibia 29.4349
lfoot -16.0573 6.21401
ltoes -12.5103
2667
root 1.01594 17.3881 -1.34009 -2.50364 6.18325 12.2452
lowerback 11.351 3.01788 3.01882
upperback 10.0961 4.30219 -1.22321
thorax 4.59927 2.42235 -3.25922
lowerneck -0.147763 -0.322753 -6.31881
upperneck 21.6164 5.12992 -24.2111
head 7.26673 0.439236 -6.759
rclavicle -1.59028e-014 -2.22639e-014
rhumerus -35.5532 6.28162 -89.1655
rradius 54.2517
rwrist 10.5482
rhand -0.540378 -2.9464
rfingers 7.12502
rthumb 25.0727 -31.3205
lclavicle -1.59028e-014 -2.22639e-014
lhumerus -35.9493 -7.16109 89.088
lradius 52.4253
lwrist 19.822
lhand 2.01771 25.8986
lfingers 7.12502
lthumb 27.5215 53.9071
rfemur -16.3809 6.18994 2.97542
rtibia 44.9594
rfoot -23.8273 -18.4586
rtoes -7.86656
lfemur -10.1421 -1.78623 -36.1601
ltibia 29.3934
lfoot -16.1919 6.50418
ltoes -12.2758
2668
root 1.05277 17.3859 -1.32726 -2.63203 5.40959 12.3279
lowerback 11.2208 2.83066 3.02597
upperback 10.0481 4.04397 -1.1539
thorax 4.59035 2.28617 -3.16919
lowerneck -0.189798 -0.134348 -6.31846
upperneck 21.4874 5.32631 -24.1429
head 7.25012 0.535798 -6.71688
rclavicle 2.54444e-014 -7.95139e-015
rhumerus -35.458 6.27755 -89.2466
rradius 54.4522
rwrist 10.9639
rhand -0.679945 -2.93034
rfingers 7.12502
rthumb 24.9389 -31.3231
lclavicle 2.54444e-014 -7.95139e-015
lhumerus -35.9788 -7.15538 89.0987
lradius 52.0624
lwrist 19.6085
lhand 1.68587 25.6429
lfingers 7.12502
lthumb 27.2041 53.7015
rfemur -16.5013 6.67492 2.7734
rtibia 44.9616
rfoot -23.8111 -18.215
rtoes -7.87113
lfemur -9.98139 -1.33514 -36.3446
ltibia 29.2984
lfoot -16.3346 6.87728
ltoes -12.4744
2669
root 1.08914 17.3836 -1.31237 -2.85332 4.66326 12.4454
lowerback 11.1579 2.61788 2.98996
upperback 10.0264 3.75085 -1.09393
thorax 4.56887 2.13091 -3.06621
lowerneck -0.257553 0.00510615 -6.4107
upperneck 21.3369 5.45271 -24.0487
head 7.22298 0.593435 -6.652
rclavicle 3.65764e-014 1.43125e-014
rhumerus -35.371 6.26872 -89.358
rradius 54.6931
rwrist 11.4847
rhand -0.822148 -3.05663
rfingers 7.12502
rthumb 24.8027 -31.4682
lclavicle 3.65764e-014 1.43125e-014
lhumerus -36.0344 -7.25345 89.1061
lradius 51.9164
lwrist 19.4075
lhand 1.71303 26.0659
lfingers 7.12502
lthumb 27.2301 54.1205
rfemur -16.5072 7.18513 2.54597
rtibia 44.9493
rfoot -23.6886 -18.0342
rtoes -8.16555
lfemur -9.69067 -0.86289 -36.5595
ltibia 29.1509
lfoot -16.5099 7.1755
ltoes -12.4265
2670
root 1.1247 17.3829 -1.2954 -3.04052 3.89628 12.6057
lowerback 11.0606 2.39037 2.88523
upperback 10.0017 3.43255 -1.04053
thorax 4.55759 1.95918 -2.92862
lowerneck -0.276954 0.174109 -6.6663
upperneck 21.1324 5.59085 -23.8513
head 7.16658 0.659115 -6.51769
rclavicle -1.98785e-014 3.97569e-014
rhumerus -35.2418 6.33507 -89.4332
rradius 54.9081
rwrist 11.9186
rhand -0.963499 -3.02162
rfingers 7.12502
rthumb 24.6672 -31.4517
lclavicle -1.98785e-014 3.97569e-014
lhumerus -36.0949 -7.23913 89.0863
lradius 51.7888
lwrist 19.0914
lhand 2.15702 26.7471
lfingers 7.12502
lthumb 27.6547 54.7343
rfemur -16.5499 7.68002 2.26631
rtibia 44.9357
rfoot -23.5688 -17.8075
rtoes -8.49088
lfemur -9.40228 -0.417508 -36.8227
ltibia 28.9684
lfoot -16.6693 7.4202
ltoes -11.9775
